<svg width="398" height="230" viewBox="0 0 398 230" fill="none" xmlns="http://www.w3.org/2000/svg">
<mask id="mask0_4_5" style="mask-type:luminance" maskUnits="userSpaceOnUse" x="219" y="0" width="87" height="82">
<path d="M219.833 0H305.167V81.2292H219.833V0Z" fill="white"/>
</mask>
<g mask="url(#mask0_4_5)">
<path d="M304.599 41.8177C304.599 47.0573 303.641 52.0625 301.87 56.6771L292.036 56.8438V57.2344L270.052 57.6667L268.667 58.2292L261.672 58.3594V58.6615H265.411L266.615 59.0052L280.187 59.2396L281.724 59.6354H283.641C283.422 59.7813 283.224 59.9323 283.042 60.1146C282.63 60.4948 282.135 60.974 281.557 61.5521C265.823 76.7396 259.578 79.9323 257.078 79.9323H256.964C254.516 76.8698 252.12 74.974 250.005 73.3021C247.464 71.2865 245.266 69.5313 242.917 65.9636C240.307 61.9792 238.469 60.7552 236.156 59.4844C234.589 58.6094 232.948 57.7188 229.958 53.9323C228.042 51.5208 225.38 47.8021 222.557 43.8698C222.073 43.1875 221.594 42.5261 221.12 41.8646V41.5208L241.182 41.125L242.552 40.5625L249.542 40.4271V40.1146H245.807L244.62 39.7865L231.047 39.5521L229.495 39.1563H221.198C222.589 17.3386 240.703 0.0833435 262.865 0.0833435C277.724 0.0833435 290.781 7.85418 298.167 19.5521L288.135 19.75L286.766 20.3333L279.755 20.4479V20.7604H283.49L284.698 21.0938L298.266 21.3229L299.391 21.6198C300.365 23.3698 301.208 25.2031 301.937 27.1094L301.641 27.125L300.266 27.6875L293.276 27.8021V28.1146H297.01L298.203 28.4479L302.432 28.5313C303.839 32.6927 304.599 37.1719 304.599 41.8177Z" fill="#40E0D0"/>
</g>
<mask id="mask1_4_5" style="mask-type:luminance" maskUnits="userSpaceOnUse" x="0" y="19" width="398" height="144">
<path d="M0 19.8959H397.167V162.563H0V19.8959Z" fill="white"/>
</mask>
<g mask="url(#mask1_4_5)">
<path d="M395.781 154.073C395.667 154.073 395.479 154.005 395.198 153.875C388.526 150.734 385.25 144.24 379.781 144.24C379.484 144.24 379.187 144.255 378.885 144.287C374.839 144.802 372.953 148.255 370.625 148.255C369.484 148.255 368.245 147.427 366.589 145.047C361.583 137.776 365.599 134.005 350.292 125.234C337.703 118.01 332.083 112.656 327.401 112.656C326.396 112.656 325.437 112.901 324.443 113.432C318.927 116.438 329.964 124.474 332.229 132.505C333.948 138.635 337.88 148.885 337.057 148.885C336.792 148.885 336.099 147.906 334.74 145.542C328.958 135.51 328.958 132.255 320.693 125.479C312.411 118.703 314.167 119.708 309.901 115.182C305.635 110.672 303.125 103.396 298.859 95.3646C295.323 88.724 295.406 81.0209 293.818 81.0209C293.505 81.0209 293.109 81.3542 292.599 82.0782C289.573 86.3438 289.573 86.3438 289.573 86.3438C289.573 86.3438 294.099 91.6146 292.844 96.8698C291.589 102.141 297.354 109.682 298.859 114.688C300.365 119.708 309.651 133.76 311.156 139.281C311.969 142.24 312.99 145.563 312.365 145.563C311.833 145.563 310.068 143.083 305.885 135.76C296.859 119.958 299.62 127.995 293.839 122.208C289.026 117.396 290.151 109.964 289.062 109.964C288.828 109.964 288.531 110.26 288.068 110.917C285.307 114.938 284.052 116.953 280.547 123.974C277.026 131 266.25 129.99 265.245 136.255C264.531 140.771 259.943 145 258.135 145C257.427 145 257.146 144.354 257.724 142.781C258.255 141.313 258.349 141.031 258.37 141.031C258.38 141.031 258.38 141.146 258.437 141.146C258.651 141.146 259.641 139.859 265.245 128.24C275.026 107.912 276.036 113.432 275.526 103.896C275.062 95.0521 278.812 89.8803 276.745 89.8803C276.583 89.8803 276.401 89.9115 276.151 89.9792C272.896 90.8542 270.896 95.1198 266.995 99.5157C263.109 103.896 259.094 107.662 258.714 111.547C258.437 114.458 256.833 118.771 256.349 118.771C256.187 118.771 256.156 118.271 256.333 117.068C257.094 112.307 257.344 112.438 256.844 108.917C256.333 105.417 259.604 105.037 260.599 99.3803C261.609 93.7448 273.656 85.9636 273.146 84.9532C273.047 84.7553 272.677 84.6563 272.135 84.6563C269.99 84.6563 265.047 86.1771 261.854 88.9688C257.839 92.4896 256.964 98.2605 250.818 102.391C244.667 106.542 236.651 112.057 231.625 117.333C226.62 122.589 219.333 119.958 218.589 131.745C217.995 141.031 218.948 151.578 218.286 151.578C218.104 151.578 217.812 150.818 217.328 149.063C215.495 142.323 215.479 138.073 214.604 138.073C214.385 138.073 214.141 138.307 213.807 138.771C212.057 141.281 211.047 144.042 205.792 147.807C202.24 150.339 197.677 153.547 196.292 153.547C195.615 153.547 195.693 152.787 197 150.818C198.271 148.901 198.75 148.537 199.068 148.537C199.281 148.537 199.417 148.682 199.677 148.682C200.307 148.682 201.562 147.828 205.792 142.042C214.568 129.99 202.786 132.505 212.818 123.464C222.849 114.438 249.193 95.3646 248.932 92.3594C248.849 91.3698 248.828 90.8907 248.536 90.8907C247.958 90.8907 246.286 92.8542 240.917 96.375C232.88 101.646 223.344 103.396 216.323 111.432C209.297 119.464 192.24 120.453 193.495 131.495C194.193 137.547 195.333 140.057 194.521 140.057C193.859 140.057 191.88 138.339 187.234 135.51C181.911 132.276 182.557 130.24 182.177 130.24C181.812 130.24 180.557 132.026 172.672 136.255C156.375 145.047 150.344 139.776 150.344 145.792C150.344 151.563 135.156 162.172 130.578 162.172C130.365 162.172 130.182 162.141 130.031 162.104C126.26 161.099 128.016 162.734 132.792 159.974C137.552 157.214 136.922 155.958 139.682 153.958C142.443 151.943 144.708 148.172 143.833 147.047C143.234 146.287 142.031 145.646 140 145.646C139.005 145.646 137.833 145.807 136.427 146.172C134.297 146.734 132.13 147.182 130.182 147.182C128.245 147.182 126.51 146.734 125.255 145.542C123.401 143.776 121.885 142.141 123.849 142.141C124.526 142.141 125.62 142.339 127.271 142.781C128.229 143.047 128.958 143.162 129.521 143.162C132.74 143.162 131.187 139.464 141.318 137.646C153.234 135.51 147.714 132.62 162.391 126.109C177.068 119.578 180.818 119.958 186.094 117.068C191.365 114.193 193.495 112.307 196.755 105.281C200.026 98.2605 202.786 101.516 201.776 94.2396C201.167 89.8803 201.661 88.3594 200.802 88.3594C200.24 88.3594 199.083 89.0209 196.635 89.9792C195.615 90.375 194.802 90.5261 194.141 90.5261C192.49 90.5261 191.776 89.6146 190.786 89.6146C189.828 89.6146 188.604 90.474 185.979 93.8646C179.583 102.141 178.323 97 171.417 104.406C165.63 110.62 156.557 119.5 154.687 119.5C154.344 119.5 154.245 119.167 154.495 118.453C155.995 113.943 161.385 115.182 162.505 109.167C163.651 103.151 171.302 96.0313 176.062 91.2553C180.818 86.474 181.198 87.849 189.365 77.4323C197.516 67.0209 207.792 60.1302 203.411 59.9948C200.292 59.9167 199.38 57.7344 198.453 57.7344C198.073 57.7344 197.677 58.099 197.13 59.125C195.25 62.6407 194.375 62.1302 190.359 66.3959C186.344 70.6615 182.589 69.7813 180.458 75.4323C178.323 81.073 181.448 78.1928 173.187 86.2084C166.589 92.6042 161.333 100.276 160.109 100.276C159.797 100.276 159.75 99.7813 160.01 98.6407C161.271 92.9844 162.885 95.7448 164.906 87.849C166.906 79.948 172.292 79.5678 177.068 72.9219C181.828 66.2761 197.516 56.1146 197.266 49.4688C197 42.8073 198.885 42.6927 197.13 39.9323C195.729 37.7188 195.844 33.1875 194.422 33.1875C194.057 33.1875 193.599 33.4896 193 34.1667C189.979 37.5521 188.854 38.5469 183.333 46.7084C177.812 54.8594 178.687 49.4688 172.807 58.7448C166.906 68.0313 163.516 69.1563 158.13 77.9323C158.13 78.0313 158.062 81.6146 148.214 91.2553C138.245 101.016 139.37 98.7553 132.974 110.604C126.578 122.474 124.13 120.026 124.13 127.167C124.13 127.167 124.198 127.412 124.443 129.927C124.693 132.438 127.203 136.771 126.396 136.948C126.359 136.969 126.344 136.969 126.328 136.969C125.568 136.969 125.385 133.912 123.187 133C121.667 132.37 122.26 131.297 121.271 131.297C120.792 131.297 119.964 131.547 118.365 132.188C117.156 132.688 116.427 132.885 115.984 132.885C114.594 132.885 115.802 130.932 113.339 129.365C110.083 127.297 117.667 121.776 116.99 118.703C116.297 115.63 119.865 114.818 118.547 111.813C117.24 108.787 119.24 108.224 117.042 107.281C116.99 107.266 116.911 107.25 116.828 107.25C114.182 107.25 102.875 122.292 96.8437 122.833C90.6458 123.417 82.3646 136.385 80.4791 136.948C78.9948 137.396 75.5885 140.818 74.7291 140.818C74.5156 140.818 74.4479 140.583 74.6458 140.026C75.5885 137.266 78.5989 136.771 81.6041 132.688C84.6146 128.62 86 122.474 90.0833 120.521C94.151 118.573 101.307 115.25 105.01 109.797C108.708 104.344 113.156 101.016 113.026 97.5625C112.906 94.1094 125.453 87.2813 129.203 80.6928C132.974 74.1146 138.625 76.1771 138.807 70.5417C138.99 64.8907 139.187 62.823 137.12 61.8803C136.974 61.8178 136.839 61.7865 136.724 61.7865C135.255 61.7865 136.495 67.2396 133.172 68.2761C129.583 69.4011 128.641 71.849 126.198 73.7344C123.75 75.6198 122.807 79.3855 120.745 81.8282C118.677 84.2761 114.724 84.0782 112.844 88.224C112.25 89.5521 111.766 90.1303 111.505 90.1303C110.974 90.1303 111.453 87.5 113.969 83.7136C117.667 78.1303 118.859 78.1928 122.245 74.875C125.635 71.5365 129.719 64.3959 132.542 62.6928C135.354 61.0053 135.354 61.1198 134.677 58.1823C133.979 55.2396 133.734 53.9167 132.542 53.4844C132.26 53.3698 131.964 53.3021 131.651 53.3021C130.594 53.3021 129.24 54.1302 127.203 57.5521C124.578 62.0157 118.609 67.6511 114.844 70.5417C111.089 73.4167 113.849 72.9219 104.812 78.9375C95.7864 84.9532 99.6718 85.7136 90.1354 92.2448C80.6146 98.7553 78.4166 99.698 78.9791 107.234C79.5416 114.755 71.4583 117.943 72.0208 126.224C72.4635 132.901 71.5729 144.953 70.4323 144.953C70.151 144.953 69.8541 144.24 69.5729 142.604C68.0677 134.125 66.7448 134.505 66.1823 128.307C65.7239 123.182 66.151 118.589 63.5885 118.589C63.026 118.589 62.3489 118.802 61.4739 119.266C56.5833 121.906 58.2864 119.083 48.6823 125.479C39.0937 131.875 41.1614 127.167 31.1771 135.266C22.5 142.307 3.44789 154.75 0.520805 154.75C0.0728886 154.75 -0.00523679 154.49 0.354138 153.875C0.354138 153.875 35.9218 126.787 50.0208 120.01C64.1354 113.234 61.8854 114.375 80.5156 95.7448C99.125 77.1198 100.266 84.4584 114.38 68.0834C124.297 56.5782 128.083 45.6355 133.37 45.6355C135.599 45.6355 138.115 47.5834 141.469 52.2761C148.99 62.823 152.755 71.599 157.104 71.599C159.271 71.599 161.599 69.4011 164.609 64.1303C173.12 49.2552 190.125 20.3334 197.745 20.3334C198.208 20.3334 198.635 20.448 199.031 20.6771C204.255 23.7188 214.208 37.9323 221.594 48.2136C223.807 51.2865 225.807 54.0157 227.359 55.9792C234.135 64.5105 235.396 60.5105 240.156 67.7813C244.932 75.0521 249.443 75.7969 254.453 82.0782C254.75 82.4584 255.109 82.724 255.526 82.9219C256.167 83.0365 256.818 83.1355 257.474 83.2032C265.094 82.6719 281.01 66.6094 285.307 62.5105C285.641 62.198 286.068 62.0469 286.562 62.0469C288.531 62.0469 291.687 64.3803 295.474 67.8646C305.161 76.7917 318.875 93.25 326.958 97.6303C339.005 104.156 338.74 110.917 346.031 114.438C353.01 117.813 398.323 154.073 395.781 154.073Z" fill="#4169E1"/>
</g>
<path d="M80.4136 174.774V180.566H70.4552V186.316H79.9969V192.087H70.4552V197.899H80.4136V203.691H63.8719V174.774H80.4136Z" fill="#4169E1"/>
<path d="M98.8775 174.774L110.544 203.691H103.461L101.315 197.899H90.315L88.19 203.691H81.1067L92.7734 174.774H98.8775ZM99.0859 192.128L95.8567 183.712H95.7942L92.565 192.128H99.0859Z" fill="#4169E1"/>
<path d="M122.301 174.253C123.868 174.253 125.394 174.482 126.884 174.941C128.384 175.399 129.493 175.852 130.217 176.295L131.28 176.982L128.613 182.253C128.405 182.118 128.113 181.936 127.738 181.712C127.363 181.493 126.66 181.191 125.634 180.816C124.603 180.441 123.644 180.253 122.759 180.253C121.66 180.253 120.811 180.493 120.217 180.962C119.618 181.42 119.321 182.045 119.321 182.837C119.321 183.243 119.457 183.618 119.738 183.962C120.03 184.295 120.509 184.66 121.176 185.045C121.853 185.42 122.452 185.727 122.967 185.962C123.478 186.201 124.28 186.545 125.363 187.003C127.222 187.811 128.811 188.894 130.134 190.253C131.452 191.618 132.113 193.165 132.113 194.899C132.113 196.555 131.811 198.003 131.217 199.253C130.618 200.493 129.801 201.456 128.759 202.149C127.728 202.847 126.582 203.357 125.321 203.691C124.056 204.035 122.686 204.212 121.217 204.212C119.952 204.212 118.707 204.076 117.488 203.816C116.28 203.566 115.264 203.253 114.446 202.878C113.639 202.493 112.905 202.107 112.238 201.732C111.582 201.357 111.113 201.04 110.821 200.774L110.363 200.399L113.655 194.857C113.931 195.097 114.311 195.394 114.801 195.753C115.301 196.118 116.176 196.602 117.426 197.212C118.676 197.826 119.78 198.128 120.738 198.128C123.514 198.128 124.905 197.18 124.905 195.274C124.905 194.889 124.801 194.524 124.592 194.191C124.394 193.847 124.051 193.503 123.551 193.17C123.051 192.826 122.603 192.555 122.217 192.357C121.827 192.165 121.196 191.868 120.321 191.462C119.446 191.045 118.801 190.732 118.384 190.524C116.634 189.649 115.28 188.566 114.321 187.274C113.363 185.982 112.884 184.587 112.884 183.087C112.884 180.493 113.842 178.373 115.759 176.732C117.676 175.081 119.853 174.253 122.301 174.253Z" fill="#4169E1"/>
<path d="M133.362 180.566V174.774H153.696V180.566H146.821V203.691H140.237V180.566H133.362Z" fill="#4169E1"/>
<path d="M172.616 174.774V180.566H162.658V186.316H172.199V192.087H162.658V197.899H172.616V203.691H156.074V174.774H172.616Z" fill="#4169E1"/>
<path d="M176.393 174.774H186.726C189.502 174.774 191.768 175.519 193.518 177.003C195.278 178.493 196.163 180.608 196.163 183.358C196.163 185.483 195.627 187.269 194.559 188.712C193.502 190.144 192.059 191.149 190.226 191.733L200.184 203.691H191.809L182.976 192.274V203.691H176.393V174.774ZM182.976 187.608H183.747C184.356 187.608 184.872 187.602 185.288 187.587C185.705 187.561 186.184 187.477 186.726 187.337C187.268 187.186 187.695 186.983 188.018 186.733C188.351 186.472 188.632 186.097 188.872 185.608C189.106 185.123 189.226 184.535 189.226 183.837C189.226 183.128 189.106 182.535 188.872 182.045C188.632 181.545 188.351 181.17 188.018 180.92C187.695 180.66 187.268 180.456 186.726 180.316C186.184 180.18 185.705 180.102 185.288 180.087C184.872 180.061 184.356 180.045 183.747 180.045H182.976V187.608Z" fill="#4169E1"/>
<path d="M208.058 185.753V203.691H201.475V174.774H208.058L219.558 192.733H219.621V174.774H226.204V203.691H219.621L208.142 185.753H208.058Z" fill="#4169E1"/>
<path d="M239.974 174.774H250.516C253.459 174.774 255.839 175.54 257.662 177.066C259.495 178.581 260.412 180.79 260.412 183.691C260.412 186.581 259.485 188.852 257.641 190.503C255.792 192.144 253.417 192.962 250.516 192.962H246.558V203.691H239.974V174.774ZM246.558 187.712H248.412C249.881 187.712 251.089 187.415 252.037 186.816C252.98 186.222 253.454 185.248 253.454 183.899C253.454 182.514 252.98 181.524 252.037 180.941C251.089 180.347 249.881 180.045 248.412 180.045H246.558V187.712Z" fill="#4169E1"/>
<path d="M279.847 174.774V180.566H269.889V186.316H279.43V192.087H269.889V197.899H279.847V203.691H263.305V174.774H279.847Z" fill="#4169E1"/>
<path d="M298.311 174.774L309.978 203.691H302.894L300.748 197.899H289.748L287.623 203.691H280.54L292.207 174.774H298.311ZM298.519 192.128L295.29 183.712H295.228L291.998 192.128H298.519Z" fill="#4169E1"/>
<path d="M337.4 203.691H328.317L317.671 191.42V203.691H311.088V174.774H317.671V186.587L327.588 174.774H335.588L323.942 188.483L337.4 203.691Z" fill="#4169E1"/>
<path d="M144.136 216.401V229.588H141.136V216.401H144.136Z" fill="#40E0D0"/>
<path d="M149.055 221.401V229.588H146.055V216.401H149.055L154.305 224.588H154.325V216.401H157.346V229.588H154.325L149.096 221.401H149.055Z" fill="#40E0D0"/>
<path d="M163.37 229.588L157.849 216.401H161.224L164.557 225.067L167.87 216.401H171.266L165.724 229.588H163.37Z" fill="#40E0D0"/>
<path d="M179.306 216.401V219.047H174.764V221.672H179.119V224.297H174.764V226.942H179.306V229.588H171.764V216.401H179.306Z" fill="#40E0D0"/>
<path d="M185.88 216.172C186.599 216.172 187.302 216.276 187.985 216.484C188.662 216.692 189.172 216.896 189.505 217.088L189.985 217.422L188.755 219.817C188.657 219.75 188.526 219.666 188.36 219.567C188.193 219.458 187.87 219.317 187.401 219.151C186.927 218.984 186.49 218.901 186.089 218.901C185.589 218.901 185.198 219.015 184.922 219.234C184.657 219.442 184.526 219.729 184.526 220.088C184.526 220.271 184.589 220.437 184.714 220.588C184.839 220.745 185.052 220.911 185.36 221.088C185.677 221.255 185.953 221.396 186.193 221.505C186.427 221.62 186.787 221.776 187.276 221.984C188.12 222.349 188.844 222.838 189.443 223.463C190.052 224.088 190.36 224.791 190.36 225.567C190.36 226.333 190.219 227 189.943 227.567C189.677 228.125 189.308 228.562 188.839 228.88C188.365 229.203 187.839 229.437 187.255 229.588C186.683 229.755 186.058 229.838 185.38 229.838C184.808 229.838 184.245 229.776 183.693 229.651C183.136 229.541 182.672 229.396 182.297 229.213C181.933 229.036 181.599 228.859 181.297 228.692C181.005 228.526 180.787 228.38 180.651 228.255L180.443 228.088L181.943 225.567C182.068 225.666 182.24 225.797 182.464 225.963C182.683 226.13 183.078 226.354 183.651 226.63C184.219 226.911 184.724 227.047 185.172 227.047C186.433 227.047 187.068 226.62 187.068 225.755C187.068 225.578 187.016 225.411 186.922 225.255C186.839 225.104 186.677 224.953 186.443 224.797C186.219 224.63 186.016 224.505 185.839 224.422C185.672 224.328 185.386 224.187 184.985 224.005C184.578 223.828 184.282 223.687 184.089 223.588C183.297 223.187 182.677 222.692 182.235 222.109C181.802 221.515 181.589 220.875 181.589 220.192C181.589 219.015 182.026 218.047 182.901 217.297C183.776 216.547 184.766 216.172 185.88 216.172Z" fill="#40E0D0"/>
<path d="M190.924 219.047V216.401H200.195V219.047H197.07V229.588H194.049V219.047H190.924Z" fill="#40E0D0"/>
<path d="M212.171 229.588L211.546 221.776H211.462L208.775 229.505H206.983L204.275 221.776H204.191L203.566 229.588H200.566L201.754 216.401H204.941L207.879 224.005L210.796 216.401H214.004L215.171 229.588H212.171Z" fill="#40E0D0"/>
<path d="M223.923 216.401V219.047H219.381V221.672H223.735V224.297H219.381V226.942H223.923V229.588H216.381V216.401H223.923Z" fill="#40E0D0"/>
<path d="M228.643 221.401V229.588H225.643V216.401H228.643L233.893 224.588H233.914V216.401H236.935V229.588H233.914L228.685 221.401H228.643Z" fill="#40E0D0"/>
<path d="M238 219.047V216.401H247.271V219.047H244.146V229.588H241.125V219.047H238Z" fill="#40E0D0"/>
<path d="M253.205 216.172C253.924 216.172 254.627 216.276 255.309 216.484C255.986 216.692 256.497 216.896 256.83 217.088L257.309 217.422L256.08 219.817C255.981 219.75 255.851 219.666 255.684 219.567C255.517 219.458 255.195 219.317 254.726 219.151C254.252 218.984 253.814 218.901 253.413 218.901C252.913 218.901 252.523 219.015 252.247 219.234C251.981 219.442 251.851 219.729 251.851 220.088C251.851 220.271 251.913 220.437 252.038 220.588C252.163 220.745 252.377 220.911 252.684 221.088C253.002 221.255 253.278 221.396 253.517 221.505C253.752 221.62 254.111 221.776 254.601 221.984C255.445 222.349 256.168 222.838 256.767 223.463C257.377 224.088 257.684 224.791 257.684 225.567C257.684 226.333 257.543 227 257.267 227.567C257.002 228.125 256.632 228.562 256.163 228.88C255.689 229.203 255.163 229.437 254.58 229.588C254.007 229.755 253.382 229.838 252.705 229.838C252.132 229.838 251.57 229.776 251.017 229.651C250.46 229.541 249.997 229.396 249.622 229.213C249.257 229.036 248.924 228.859 248.622 228.692C248.33 228.526 248.111 228.38 247.976 228.255L247.767 228.088L249.267 225.567C249.392 225.666 249.564 225.797 249.788 225.963C250.007 226.13 250.403 226.354 250.976 226.63C251.543 226.911 252.049 227.047 252.497 227.047C253.757 227.047 254.392 226.62 254.392 225.755C254.392 225.578 254.34 225.411 254.247 225.255C254.163 225.104 254.002 224.953 253.767 224.797C253.543 224.63 253.34 224.505 253.163 224.422C252.997 224.328 252.71 224.187 252.309 224.005C251.903 223.828 251.606 223.687 251.413 223.588C250.622 223.187 250.002 222.692 249.559 222.109C249.127 221.515 248.913 220.875 248.913 220.192C248.913 219.015 249.351 218.047 250.226 217.297C251.101 216.547 252.09 216.172 253.205 216.172Z" fill="#40E0D0"/>
</svg>
